<svg height="496pt" viewBox="0 0 496 496" width="496pt" xmlns="http://www.w3.org/2000/svg"><path d="m456 104v32h-128v-32zm0 0" fill="#e6e9ed"/><path d="m344 72h96v32h-96zm0 0" fill="#b4dd7f"/><path d="m472 136v32h-160v-32zm0 0" fill="#b4dd7f"/><path d="m488 168v32h-192v-32zm0 0" fill="#e6e9ed"/><path d="m488 200v288h-48v-288zm0 0" fill="#ffeaa7"/><path d="m344 440v48h-48v-288h48zm0 0" fill="#ffeaa7"/><path d="m144 8 40 64h-96l40-64zm0 0" fill="#ffc729"/><path d="m200 128 32 48v8h-64v-8zm0 0" fill="#ffc729"/><path d="m72 128 32 48v8h-64v-8zm0 0" fill="#ffc729"/><path d="m200 128-32 48v8h-64v-8l-32-48v-56h128zm0 0" fill="#e6e9ed"/><path d="m248 280v32h-64v-32zm0 0" fill="#ffeaa7"/><path d="m88 280v32h-64v-32zm0 0" fill="#ffeaa7"/><path d="m232 184v96h-48v32h-16v176h-64v-176h-16v-32h-48v-96zm-32 64v-32h-128v32zm0 0" fill="#b4dd7f"/><path d="m264 312v176h-96v-176zm0 0" fill="#e6e9ed"/><path d="m104 312v176h-96v-176zm0 0" fill="#e6e9ed"/><g fill="#69d6f4"><path d="m104 104h32v32h-32zm0 0"/><path d="m136 104h32v32h-32zm0 0"/><path d="m104 216h32v32h-32zm0 0"/><path d="m72 216h32v32h-32zm0 0"/><path d="m168 216h32v32h-32zm0 0"/><path d="m136 216h32v32h-32zm0 0"/><path d="m40 408h32v32h-32zm0 0"/><path d="m40 344h32v32h-32zm0 0"/><path d="m200 408h32v32h-32zm0 0"/><path d="m200 344h32v32h-32zm0 0"/><path d="m392 200h-48v288h96v-288zm0 0"/></g><path d="m480 160v-32h-16v-32h-16v-32h-112v32h-16v32h-16v32h-16v336h208v-336zm-128-80h80v16h-80zm-16 32h112v16h-112zm-16 32h144v16h-144zm160 32v16h-176v-16zm-96 32v32h-32v-32zm48 224h-32v-32h32zm-80-128h32v32h-32zm0 48h32v32h-32zm0 48h32v32h-32zm80-16h-32v-32h32zm0-48h-32v-32h32zm0-48h-32v-32h32zm-48 0h-32v-32h32zm-32 160h32v32h-32zm48 0h32v32h-32zm32-208h-32v-32h32zm-128-32h32v272h-32zm144 272v-272h32v272zm0 0"/><path d="m256 272h-16v-98.425781l-32-48v-61.574219h-19.566406l-39.992188-64h-24.875l-39.992187 64h-19.574219v61.574219l-32 48v98.425781h-16v32h-16v192h272v-192h-16zm-64 32v-16h48v16zm8-161.574219 22.382812 33.574219h-44.765624zm-67.558594-126.425781h7.125l30.007813 48h-67.132813zm59.558594 64v45.574219l-32 48v2.425781h-48v-2.425781l-32-48v-45.574219zm-120 62.425781 22.382812 33.574219h-44.765624zm-40 145.574219h48v16h-48zm64 192h-80v-160h80zm64 0h-48v-176h-16v-32h-48v-80h176v80h-48v32h-16zm96 0h-80v-160h80zm0 0"/><path d="m208 208h-144v48h144zm-64 16h16v16h-16zm-16 16h-16v-16h16zm-48-16h16v16h-16zm112 16h-16v-16h16zm0 0"/><path d="m80 336h-48v48h48zm-16 32h-16v-16h16zm0 0"/><path d="m80 400h-48v48h48zm-16 32h-16v-16h16zm0 0"/><path d="m240 336h-48v48h48zm-16 32h-16v-16h16zm0 0"/><path d="m240 400h-48v48h48zm-16 32h-16v-16h16zm0 0"/><path d="m176 96h-80v48h80zm-64 16h16v16h-16zm48 16h-16v-16h16zm0 0"/></svg>