<svg height="511pt" viewBox="-76 1 511 511.99896" width="511pt" xmlns="http://www.w3.org/2000/svg"><g fill="#273c47"><path d="m343.179688 147.09375h-28.902344v-95.585938h28.902344c8.707031 0 15.765624 7.058594 15.765624 15.765626v64.058593c-.003906 8.703125-7.058593 15.761719-15.765624 15.761719zm0 0"/><path d="m16.265625 115.507812h28.195313v-64h-28.195313c-8.707031 0-15.765625 7.058594-15.765625 15.765626v32.472656c0 8.703125 7.058594 15.761718 15.765625 15.761718zm0 0"/><path d="m16.265625 197.207031h28.535156v-64h-28.535156c-8.707031 0-15.765625 7.058594-15.765625 15.765625v32.472656c0 8.703126 7.058594 15.761719 15.765625 15.761719zm0 0"/></g><path d="m313.746094 0h-268.046875c-18.511719 0-33.523438 15.007812-33.523438 33.523438v444.953124c0 18.511719 15.011719 33.523438 33.523438 33.523438h268.046875c18.515625 0 33.523437-15.011719 33.523437-33.523438v-444.953124c0-18.515626-15.007812-33.523438-33.523437-33.523438zm0 0" fill="#405968"/><path d="m71.570312 512h-25.871093c-18.515625 0-33.523438-15.003906-33.523438-33.519531v-444.960938c0-18.515625 15.007813-33.519531 33.523438-33.519531h25.871093c-18.515624 0-33.519531 15.003906-33.519531 33.519531v444.960938c0 18.515625 15.003907 33.519531 33.519531 33.519531zm0 0" fill="#273c47"/><path d="m24.484375 51.511719h310.46875v389.027343h-310.46875zm0 0" fill="#8dc2d3"/><path d="m24.484375 51.511719h13.5625v389.027343h-13.5625zm0 0" fill="#62a5b5"/><path d="m321.390625 51.511719h13.5625v389.027343h-13.5625zm0 0" fill="#a8d9e5"/><path d="m205.59375 34.421875h-51.742188c-4.328124 0-7.835937-3.507813-7.835937-7.835937 0-4.328126 3.507813-7.835938 7.835937-7.835938h51.742188c4.328125 0 7.835938 3.507812 7.835938 7.835938 0 4.328124-3.507813 7.835937-7.835938 7.835937zm0 0" fill="#273c47"/><path d="m205.59375 481.96875h-51.742188c-4.328124 0-7.835937-3.507812-7.835937-7.835938 0-4.328124 3.507813-7.835937 7.835937-7.835937h51.742188c4.328125 0 7.835938 3.507813 7.835938 7.835937 0 4.328126-3.507813 7.835938-7.835938 7.835938zm0 0" fill="#273c47"/><path d="m24.484375 51.511719h187.96875v283.15625h-187.96875zm0 0" fill="#f7e352"/><path d="m253.015625 227.523438h81.9375v213.015624h-81.9375zm0 0" fill="#f7e352"/><path d="m167.582031 51.511719c0 90.195312-90.457031 65.632812-90.457031 174.394531 0 29.339844-17.960938 39.957031-39.078125 43.625-4.429687.773438-8.996094 1.242188-13.5625 1.492188v-219.511719zm0 0" fill="#6adbbd"/><path d="m24.484375 51.511719h13.5625v283.15625h-13.5625zm0 0" fill="#f4be53"/><path d="m334.953125 172.332031v55.191407h-81.9375v213.015624h-56.949219v-76.644531h-171.582031v-55.203125h171.582031v-257.179687h56.949219v120.820312zm0 0" fill="#fff6e3"/><path d="m194.679688 245.835938c-18.238282-18.234376-47.804688-18.234376-66.042969 0-18.234375 18.238281-18.234375 47.804687 0 66.042968l33.023437 33.019532 33.019532-33.019532c18.238281-18.238281 18.238281-47.804687 0-66.042968zm0 0" fill="#ef5e72"/><path d="m180.75 278.859375c0 10.542969-8.546875 19.089844-19.089844 19.089844-10.542968 0-19.089844-8.546875-19.089844-19.089844s8.546876-19.089844 19.089844-19.089844c10.542969 0 19.089844 8.546875 19.089844 19.089844zm0 0" fill="#fff6e3"/><path d="m38.046875 51.511719v218.019531c-4.429687.773438-8.996094 1.242188-13.5625 1.492188v-219.511719zm0 0" fill="#4fbf9f"/><path d="m321.390625 172.332031h13.5625v55.191407h-13.5625zm0 0" fill="#fff"/><path d="m321.390625 227.523438h13.5625v213.015624h-13.5625zm0 0" fill="#fced95"/><path d="m24.484375 308.691406h13.5625v55.203125h-13.5625zm0 0" fill="#ddd3c3"/></svg>