<svg height="496pt" viewBox="0 -48 496 496" width="496pt" xmlns="http://www.w3.org/2000/svg"><path d="m200 40v48h-128v-32l16-16zm0 0" fill="#969faa"/><g fill="#fcd770"><path d="m456 40v80h-64l5.359375-32 .320313-2.320312 7.679687-45.679688.402344-2.640625c1.277343-7.679687 8-13.359375 15.757812-13.359375h18.480469c8.800781 0 16 7.199219 16 16zm0 0"/><path d="m184 24v16h-80v-16c0-8.800781 7.199219-16 16-16h48c8.800781 0 16 7.199219 16 16zm0 0"/><path d="m152 88 16 32h-77.761719c-.71875 0-1.519531 0-2.238281.160156v-.160156l16-32zm0 0"/></g><path d="m328 328h-128v-176c0-17.679688 14.320312-32 32-32h224c17.679688 0 32 14.320312 32 32v176h-50.800781c-6.480469-18.640625-24.320313-32-45.199219-32s-38.71875 13.359375-45.199219 32zm0 0" fill="#ff826e"/><path d="m488 336v8c0 8.800781-7.199219 16-16 16h-34.800781c1.839843-5.039062 2.800781-10.398438 2.800781-16s-.960938-10.960938-2.800781-16h50.800781zm0 0" fill="#e6e9ed"/><path d="m400 152c30.960938 0 56 25.039062 56 56s-25.039062 56-56 56-56-25.039062-56-56 25.039062-56 56-56zm0 0" fill="#ffeaa7"/><path d="m424 208c0 13.253906-10.746094 24-24 24s-24-10.746094-24-24 10.746094-24 24-24 24 10.746094 24 24zm0 0" fill="#fcd770"/><path d="m437.199219 328c1.839843 5.039062 2.800781 10.398438 2.800781 16s-.960938 10.960938-2.800781 16c-6.480469 18.640625-24.320313 32-45.199219 32s-38.71875-13.359375-45.199219-32c-1.839843-5.039062-2.800781-10.398438-2.800781-16s.960938-10.960938 2.800781-16c6.480469-18.640625 24.320313-32 45.199219-32s38.71875 13.359375 45.199219 32zm0 0" fill="#838f9b"/><path d="m408 344c0 8.835938-7.164062 16-16 16s-16-7.164062-16-16 7.164062-16 16-16 16 7.164062 16 16zm0 0" fill="#ccd1d9"/><path d="m328 328h18.800781c-1.839843 5.039062-2.800781 10.398438-2.800781 16s.960938 10.960938 2.800781 16h-146.800781l-32-32zm0 0" fill="#e6e9ed"/><path d="m232 216v-32h64c8.800781 0 16 7.199219 16 16v64c0 8.800781-7.199219 16-16 16h-64zm0 0" fill="#fcd770"/><path d="m200 152v176h-32v-168c0-4.398438-3.601562-8-8-8h-65.601562c-3.757813 0-6.957032 2.640625-7.757813 6.238281l-14.640625 65.761719v104h-48v-94.878906c0-10.722656 5.359375-20.722656 14.238281-26.640625l9.761719-6.480469 10.878906-54.238281c2.800782-14.242188 14.800782-24.722657 29.121094-25.601563.71875-.160156 1.519531-.160156 2.238281-.160156h77.761719c17.679688 0 32 14.320312 32 32zm0 0" fill="#ff826e"/><path d="m168 248v96c0-26.480469-21.519531-48-48-48-20.878906 0-38.71875 13.359375-45.199219 32h-2.800781v-104h48l16-8h32zm0 0" fill="#ff826e"/><path d="m168 160v56h-32l-16 8h-48l14.640625-65.761719c.800781-3.597656 4-6.238281 7.757813-6.238281h65.601562c4.398438 0 8 3.601562 8 8zm0 0" fill="#69d6f4"/><path d="m120 296c26.480469 0 48 21.519531 48 48s-21.519531 48-48 48c-20.878906 0-38.71875-13.359375-45.199219-32-1.839843-5.039062-2.800781-10.398438-2.800781-16s.960938-10.960938 2.800781-16c6.480469-18.640625 24.320313-32 45.199219-32zm0 0" fill="#838f9b"/><path d="m136 344c0 8.835938-7.164062 16-16 16s-16-7.164062-16-16 7.164062-16 16-16 16 7.164062 16 16zm0 0" fill="#ccd1d9"/><path d="m72 328h2.800781c-1.839843 5.039062-2.800781 10.398438-2.800781 16s.960938 10.960938 2.800781 16h-58.800781c-4.398438 0-8-3.601562-8-8v-16c0-4.398438 3.601562-8 8-8zm0 0" fill="#e6e9ed"/><path d="m392 320c-13.230469 0-24 10.769531-24 24s10.769531 24 24 24 24-10.769531 24-24-10.769531-24-24-24zm0 32c-4.40625 0-8-3.59375-8-8s3.59375-8 8-8 8 3.59375 8 8-3.59375 8-8 8zm0 0"/><path d="m120 320c-13.230469 0-24 10.769531-24 24s10.769531 24 24 24 24-10.769531 24-24-10.769531-24-24-24zm0 32c-4.40625 0-8-3.59375-8-8s3.59375-8 8-8 8 3.59375 8 8-3.59375 8-8 8zm0 0"/><path d="m464 112.808594v-72.808594c0-13.230469-10.769531-24-24-24h-18.449219c-10.359375 0-19.292969 6.527344-22.621093 16h-206.929688v-8c0-13.230469-10.769531-24-24-24h-48c-13.230469 0-24 10.769531-24 24v8h-11.3125l-20.6875 20.6875v43.3125h27.054688l-8.382813 16.777344c-15.664063 3.039062-28.441406 15.277344-31.65625 31.375l-10.207031 51.03125-6.992188 4.65625c-11.152344 7.441406-17.816406 19.878906-17.816406 33.289062v86.871094c-8.824219 0-16 7.175781-16 16v16c0 8.824219 7.175781 16 16 16h53.480469c9.007812 18.886719 28.238281 32 50.519531 32 29.816406 0 54.191406-23.441406 55.839844-52.847656l20.847656 20.847656h144.792969c9.007812 18.886719 28.238281 32 50.519531 32s41.511719-13.113281 50.519531-32h29.480469c13.230469 0 24-10.769531 24-24v-192c0-19.3125-13.769531-35.472656-32-39.191406zm-50.335938-74.121094c.648438-3.871094 3.96875-6.6875 7.886719-6.6875h18.449219c4.40625 0 8 3.59375 8 8v72h-46.558594zm-213.664062 89.558594c-6.304688-8.46875-15.832031-14.269532-26.792969-15.71875l-8.261719-16.527344h222.941407l-2.664063 16h-153.222656c-13.128906 0-24.703125 6.449219-32 16.246094zm192.375-59.183594-21.0625-21.0625h24.574219zm-11.6875 10.9375h-57.375l28.6875-28.6875zm-76.6875-3.3125-28.6875-28.6875h57.375zm-19.3125 3.3125h-57.375l28.6875-28.6875zm-76.6875-3.3125v-28.6875h28.6875zm-96-52.6875c0-4.40625 3.59375-8 8-8h48c4.40625 0 8 3.59375 8 8v8h-64zm-32 35.3125 11.3125-11.3125h100.6875v32h-112zm67.054688 36.6875 8 16h-54.109376l8-16zm-115.054688 137.128906c0-8.039062 4-15.503906 10.6875-19.96875l12.503906-8.335937 11.503906-57.519531c2.242188-11.191407 12.136719-19.304688 23.535157-19.304688h77.769531c13.230469 0 24 10.769531 24 24v168h-16v-160c0-8.824219-7.175781-16-16-16h-65.585938c-7.558593 0-13.980468 5.152344-15.613281 12.527344l-14.609375 65.738281-.175781 97.734375h-32.015625zm128-25.128906h-25.886719l-16 8h-36.144531l12.445312-56h65.585938zm-80 24h41.886719l16-8h22.113281v16h-16v16h16v48.878906c-10.175781-10.398437-24.335938-16.878906-40-16.878906s-29.824219 6.480469-40 16.878906zm-64 120v-16h48.640625c-.375 2.625-.640625 5.28125-.640625 8s.265625 5.375.640625 8zm104 32c-22.054688 0-40-17.945312-40-40s17.945312-40 40-40 40 17.945312 40 40-17.945312 40-40 40zm83.3125-32-16-16h149.328125c-.375 2.625-.640625 5.28125-.640625 8s.265625 5.375.640625 8zm188.6875 32c-22.054688 0-40-17.945312-40-40s17.945312-40 40-40 40 17.945312 40 40-17.945312 40-40 40zm88-40c0 4.40625-3.59375 8-8 8h-24.640625c.375-2.625.640625-5.28125.640625-8s-.265625-5.375-.640625-8h32.640625zm-37.480469-24c-9.007812-18.886719-28.238281-32-50.519531-32s-41.511719 13.113281-50.519531 32h-5.480469v-16h-16v16h-16v-16h-16v16h-16v-16h-16v16h-16v-16h-16v16h-16v-168c0-13.230469 10.769531-24 24-24h224c13.230469 0 24 10.769531 24 24v168zm0 0"/><path d="m400 144h-80v16h37.808594c-13.335938 11.734375-21.808594 28.878906-21.808594 48 0 35.289062 28.710938 64 64 64 19.121094 0 36.265625-8.472656 48-21.808594v37.808594h16v-80c0-35.289062-28.710938-64-64-64zm0 112c-26.472656 0-48-21.527344-48-48s21.527344-48 48-48 48 21.527344 48 48-21.527344 48-48 48zm0 0"/><path d="m400 176c-17.648438 0-32 14.351562-32 32s14.351562 32 32 32 32-14.351562 32-32-14.351562-32-32-32zm0 48c-8.824219 0-16-7.175781-16-16s7.175781-16 16-16 16 7.175781 16 16-7.175781 16-16 16zm0 0"/><path d="m296 176h-72v112h72c13.230469 0 24-10.769531 24-24v-64c0-13.230469-10.769531-24-24-24zm8 88c0 4.40625-3.59375 8-8 8h-56v-48h16v-16h-16v-16h56c4.40625 0 8 3.59375 8 8zm0 0"/><path d="m272 208h16v16h-16zm0 0"/></svg>